<svg version="1.1" id="Layer_1" xmlns="http://www.w3.org/2000/svg" x="0" y="0" viewBox="0 0 41 41" xml:space="preserve"><style>.st0{fill:#4563cc}.st2{fill:#333}.st3{fill:#fff}</style><path class="st0" d="M957 391.4H165.7V198.1h791.9l-.6 193.3z"/><path d="M957 616.4H165.7V389.1h791.9l-.6 227.3z" fill="#414141"/><path class="st2" d="M328.8 90.4h9c4.9 0 7.2.5 9.3 2.8 1.3 1.3 1.7 3.1 1.7 4.8 0 2.2-1 4.5-3.4 5.9 4.7 1.7 4.8 5.6 4.8 6.8 0 2.3-.9 4.9-2.7 6.3-2.7 2.2-4.6 2.5-9.5 2.5h-9.2V90.4zm7.1 11.1h2.6c1 0 3.1 0 3.1-2.3 0-2.2-2-2.2-3.1-2.2h-2.6v4.5zm0 11.5h3.5c.9 0 3.7 0 3.7-2.8 0-2.5-2.5-2.5-3.7-2.5h-3.5v5.3zm16.5-22.6h6.5v29.1h-6.5V90.4zm29.9 29.2h-6.2v-2.3h-.1c-1.3 2.8-4 3-5.7 3-1.3 0-4.5-.3-6.4-2.8-1.7-2.2-2-3.7-2-6.7V97.7h6.5v12.1c0 1.5 0 4.4 3.5 4.4 1.9 0 3.7-1 3.7-4.4v-12h6.5l.2 21.8zm24.2-6.9c-1.1 2.4-2.6 4.3-4.5 5.6-1.8 1.3-4 2-6.2 2-6.3 0-11.6-5.1-11.6-11.6 0-6.1 4.8-11.7 11.5-11.7s11.5 5.3 11.5 11.9c0 .9-.1 1.2-.2 1.7h-16.4c.4 2.6 2.6 4.1 5.1 4.1 2 0 3.1-.9 4-2.1l6.8.1zm-5.7-6.5c-.3-1.3-1.6-3.7-5-3.7s-4.7 2.4-5 3.7h10zm21.8-7.3c-.2-1-.4-2.8-2.7-2.8-1.3 0-2.6.9-2.6 2.3 0 1.7.8 2.1 6 4.4 5.4 2.4 6.8 5 6.8 8.3 0 4.2-2.4 8.9-10.1 8.9-8.4 0-10.5-5.5-10.5-9.2v-.9h7.4c0 3.4 2.1 4 3 4 1.8 0 2.8-1.5 2.8-2.8 0-1.9-1.2-2.4-5.7-4.3-2-.8-7.1-2.9-7.1-8.3s5.3-8.6 10.2-8.6c2.9 0 6 1.1 7.9 3.3 1.7 2.1 1.9 4.1 1.9 5.8l-7.3-.1zm9.5-8.5h6.5v15.2h.1l6.1-7.9h7.8l-8.2 9.6 8 12.2H445l-6.2-10.5h-.1v10.5h-6.5V90.4z"/><path class="st2" d="M473.5 97.7l-10.9 29.1h-6.9l3.5-8.4-8.2-20.7h7l4.4 12.7h.1l4.2-12.7h6.8z"/><path class="st3" d="M0 26.4v6.1c4.7 0 8.5 3.8 8.5 8.5h6.1C14.6 32.9 8 26.4 0 26.4z"/><path class="st3" d="M29.1 11.9C27.8 5.2 21.8 0 14.7 0 7.4 0 1.3 5.4.2 12.4c2.1 0 4.1.3 6.1.8.7-4 4.2-7 8.4-7 4.7 0 8.6 3.8 8.6 8.6v3.1h3c4.7 0 8.6 3.8 8.6 8.6s-3.8 8.6-8.6 8.6h-2.7c-.7-2.6-1.8-5.1-3.2-7.3-3.3-5-8.3-8.7-14.2-10.2-1.9-.5-4-.8-6.1-.8v6.1c10.1 0 18.3 8.2 18.3 18.3h8c8.1 0 14.6-6.6 14.6-14.6-.1-7.4-5.2-13.3-11.9-14.7zM328.8 267h9c4.9 0 7.2.5 9.3 2.8 1.3 1.3 1.7 3.1 1.7 4.8 0 2.2-1 4.5-3.4 5.9 4.7 1.6 4.8 5.5 4.8 6.8 0 2.3-.9 4.9-2.7 6.3-2.7 2.2-4.6 2.5-9.5 2.5h-9.2V267zm7.1 11h2.6c1 0 3.1 0 3.1-2.3 0-2.2-2-2.2-3.1-2.2h-2.6v4.5zm0 11.6h3.5c.9 0 3.7 0 3.7-2.8 0-2.5-2.5-2.5-3.7-2.5h-3.5v5.3zm16.5-22.6h6.5v29.1h-6.5V267zm29.9 29.1h-6.2v-2.3h-.1c-1.3 2.8-4 3-5.7 3-1.3 0-4.5-.3-6.4-2.8-1.7-2.2-2-3.7-2-6.7v-13.1h6.5v12.1c0 1.5 0 4.4 3.5 4.4 1.9 0 3.7-1 3.7-4.5v-12h6.5l.2 21.9zm24.2-6.8c-1.1 2.4-2.6 4.3-4.5 5.6-1.8 1.3-4 2-6.2 2-6.3 0-11.6-5.1-11.6-11.6 0-6.1 4.8-11.7 11.5-11.7s11.5 5.3 11.5 11.9c0 .9-.1 1.2-.2 1.7h-16.4c.4 2.6 2.6 4.1 5.1 4.1 2 0 3.1-.9 4-2h6.8zm-5.7-6.5c-.3-1.3-1.6-3.7-5-3.7s-4.7 2.4-5 3.7h10zm21.8-7.3c-.2-1-.4-2.8-2.7-2.8-1.3 0-2.6.9-2.6 2.3 0 1.7.8 2.1 6 4.5 5.4 2.4 6.8 5 6.8 8.3 0 4.2-2.4 8.9-10.1 8.9-8.4 0-10.5-5.5-10.5-9.2v-.9h7.4c0 3.4 2.1 4 3 4 1.8 0 2.8-1.5 2.8-2.8 0-1.9-1.2-2.4-5.7-4.3-2-.8-7.1-2.9-7.1-8.3s5.3-8.6 10.2-8.6c2.9 0 6 1.1 7.9 3.3 1.7 2.1 1.9 4.1 1.9 5.8l-7.3-.2zm9.5-8.5h6.5v15.2h.1l6.1-7.9h7.8l-8.2 9.6 8 12.2H445l-6.2-10.5h-.1v10.5h-6.5V267z"/><path class="st3" d="M473.5 274.3l-10.9 29.1h-6.9l3.5-8.4-8.1-20.7h7l4.4 12.7h.1l4.2-12.7h6.7z"/><path class="st2" d="M275.1 281.5v6.1c4.7 0 8.5 3.8 8.5 8.5h6.1c0-8.1-6.6-14.6-14.6-14.6z"/><path class="st2" d="M304.2 267.1c-1.3-6.8-7.2-11.9-14.4-11.9-7.3 0-13.4 5.4-14.5 12.4 2.1 0 4.1.3 6 .8.7-4 4.2-7 8.4-7 4.7 0 8.6 3.8 8.6 8.6v3.1h3c4.7 0 8.6 3.8 8.6 8.6s-3.8 8.6-8.6 8.6h-2.7c-.7-2.6-1.8-5.1-3.2-7.3-3.3-5-8.3-8.7-14.2-10.2-2-.5-4-.8-6.1-.8v6.1c10.1 0 18.3 8.2 18.3 18.3h8c8.1 0 14.6-6.6 14.6-14.6 0-7.5-5.1-13.4-11.8-14.7z"/><path class="st3" d="M328.8 461.4h9c4.9 0 7.2.5 9.3 2.8 1.3 1.3 1.7 3.1 1.7 4.8 0 2.2-1 4.5-3.4 5.9 4.7 1.6 4.8 5.5 4.8 6.8 0 2.3-.9 4.9-2.7 6.3-2.7 2.2-4.6 2.5-9.5 2.5h-9.2v-29.1zm7.1 11h2.6c1 0 3.1 0 3.1-2.3 0-2.2-2-2.2-3.1-2.2h-2.6v4.5zm0 11.6h3.5c.9 0 3.7 0 3.7-2.8 0-2.5-2.5-2.5-3.7-2.5h-3.5v5.3zm16.5-22.6h6.5v29.1h-6.5v-29.1zm29.9 29.1h-6.2v-2.3h-.1c-1.3 2.8-4 3-5.7 3-1.3 0-4.5-.3-6.4-2.8-1.7-2.2-2-3.7-2-6.7v-13.1h6.5v12.1c0 1.5 0 4.4 3.5 4.4 1.9 0 3.7-1 3.7-4.5v-12h6.5l.2 21.9zm24.2-6.8c-1.1 2.4-2.6 4.3-4.5 5.6-1.8 1.3-4 2-6.2 2-6.3 0-11.6-5.1-11.6-11.6 0-6.1 4.8-11.7 11.5-11.7s11.5 5.3 11.5 11.9c0 .9-.1 1.2-.2 1.7h-16.4c.4 2.6 2.6 4.1 5.1 4.1 2 0 3.1-.9 4-2h6.8zm-5.7-6.5c-.3-1.3-1.6-3.7-5-3.7s-4.7 2.4-5 3.7h10zm21.8-7.3c-.2-1-.4-2.8-2.7-2.8-1.3 0-2.6.9-2.6 2.3 0 1.7.8 2.1 6 4.5 5.4 2.4 6.8 5 6.8 8.3 0 4.2-2.4 8.9-10.1 8.9-8.4 0-10.5-5.5-10.5-9.2v-.9h7.4c0 3.4 2.1 4 3 4 1.8 0 2.8-1.5 2.8-2.8 0-1.9-1.2-2.4-5.7-4.3-2-.8-7.1-2.9-7.1-8.3s5.3-8.6 10.2-8.6c2.9 0 6 1.1 7.9 3.3 1.7 2.1 1.9 4.1 1.9 5.8l-7.3-.2zm9.5-8.5h6.5v15.2h.1l6.1-7.9h7.8l-8.2 9.6 8 12.2H445l-6.2-10.5h-.1v10.5h-6.5v-29.1z"/><path class="st3" d="M473.5 468.7l-10.9 29.1h-6.9l3.5-8.4-8.1-20.7h7l4.4 12.7h.1l4.2-12.7h6.7z"/><path class="st0" d="M275.1 475.9v6.1c4.7 0 8.5 3.8 8.5 8.5h6.1c0-8.1-6.6-14.6-14.6-14.6z"/><path class="st0" d="M304.2 461.5c-1.3-6.8-7.2-12-14.4-12-7.3 0-13.4 5.4-14.5 12.4 2.1 0 4.1.3 6 .8.7-4 4.2-7 8.4-7 4.7 0 8.6 3.8 8.6 8.6v3.1h3c4.7 0 8.6 3.8 8.6 8.6s-3.8 8.6-8.6 8.6h-2.7c-.7-2.6-1.8-5.1-3.2-7.3-3.3-5-8.3-8.7-14.2-10.2-2-.5-4-.8-6.1-.8v6.1c10.1 0 18.3 8.2 18.3 18.3h8c8.1 0 14.6-6.6 14.6-14.6 0-7.4-5.1-13.3-11.8-14.6z"/><path class="st2" d="M647.8 90.4h9c4.9 0 7.2.5 9.3 2.8 1.3 1.3 1.7 3.1 1.7 4.8 0 2.2-1 4.5-3.4 5.9 4.7 1.7 4.8 5.6 4.8 6.8 0 2.3-.9 4.9-2.7 6.3-2.7 2.2-4.6 2.5-9.5 2.5h-9.2V90.4zm7.1 11.1h2.6c1 0 3.2 0 3.2-2.3 0-2.2-2-2.2-3.2-2.2h-2.6v4.5zm0 11.5h3.5c.9 0 3.7 0 3.7-2.8 0-2.5-2.5-2.5-3.7-2.5h-3.5v5.3zm16.5-22.6h6.5v29.1h-6.5V90.4zm29.9 29.2h-6.2v-2.3h-.1c-1.3 2.8-4 3-5.7 3-1.3 0-4.5-.3-6.4-2.8-1.7-2.2-2-3.7-2-6.7V97.7h6.5v12.1c0 1.5 0 4.4 3.5 4.4 1.9 0 3.7-1 3.7-4.4v-12h6.5l.2 21.8zm24.2-6.9c-1.1 2.4-2.6 4.3-4.5 5.6-1.8 1.3-4 2-6.2 2-6.3 0-11.6-5.1-11.6-11.6 0-6.1 4.8-11.7 11.5-11.7s11.5 5.3 11.5 11.9c0 .9-.1 1.2-.2 1.7h-16.4c.4 2.6 2.6 4.1 5.1 4.1 2 0 3.1-.9 4-2.1l6.8.1zm-5.7-6.5c-.3-1.3-1.6-3.7-5-3.7s-4.7 2.4-5 3.7h10zm21.8-7.3c-.2-1-.4-2.8-2.7-2.8-1.3 0-2.6.9-2.6 2.3 0 1.7.8 2.1 6 4.4 5.4 2.4 6.8 5 6.8 8.3 0 4.2-2.4 8.9-10.2 8.9-8.4 0-10.5-5.5-10.5-9.2v-.9h7.4c0 3.4 2.1 4 3 4 1.8 0 2.8-1.5 2.8-2.8 0-1.9-1.2-2.4-5.7-4.3-2-.8-7.1-2.9-7.1-8.3s5.3-8.6 10.2-8.6c2.9 0 6 1.1 7.9 3.3 1.7 2.1 1.8 4.1 1.9 5.8l-7.2-.1zm9.5-8.5h6.5v15.2h.1l6.1-7.9h7.8l-8.2 9.6 8 12.2H764l-6.2-10.5h-.1v10.5h-6.5V90.4z"/><path class="st2" d="M792.5 97.7l-10.9 29.1h-6.9l3.5-8.4-8.2-20.7h7l4.4 12.7h.1l4.2-12.7h6.8z"/><path class="st0" d="M594.1 104.9v6.1c4.7 0 8.5 3.8 8.5 8.5h6.1c0-8-6.6-14.6-14.6-14.6z"/><path class="st0" d="M623.2 90.5c-1.3-6.8-7.2-11.9-14.4-11.9-7.3 0-13.4 5.4-14.5 12.4 2.1 0 4.1.3 6 .8.7-4 4.2-7 8.4-7 4.7 0 8.6 3.8 8.6 8.6v3.1h3c4.7 0 8.6 3.8 8.6 8.6s-3.8 8.6-8.6 8.6h-2.7c-.7-2.6-1.8-5.1-3.2-7.3-3.3-5-8.3-8.7-14.2-10.2-2-.5-4-.8-6.1-.8v6.1c10.1 0 18.3 8.2 18.3 18.3h8c8.1 0 14.7-6.6 14.7-14.7-.1-7.3-5.2-13.3-11.9-14.6z"/><path class="st2" d="M647.7 131.5h3.9c1.6 0 3.2.4 4.3 1.1 2.3 1.4 3 4 3 5.6 0 1.2-.5 3.9-3 5.5-1.1.7-2.7 1.1-4.3 1.1h-3.9v-13.3zm1.3 12.1h1.9c1.2 0 3 0 4.5-1.1.8-.7 2.1-2.1 2.1-4.4 0-1.8-.9-3.4-2.2-4.4-1.2-.8-2.4-1-4.4-1H649v10.9zm11.5-12.1h1.2v2.3h-1.2v-2.3zm0 3.5h1.2v9.8h-1.2V135zm12.9 8.2c0 1.1 0 2.4-.9 3.6-1.2 1.7-3.5 1.8-3.9 1.8-1.4 0-4.1-.5-5-3.6h1.3c.3.8 1.3 2.5 3.7 2.5 1.7 0 3.5-.9 3.5-3.6v-.9c-.7 1.4-2.3 2-3.8 2-2.6 0-5.1-2-5.1-5.1 0-3.1 2.5-5.2 5.1-5.2.9 0 2.7.3 3.8 2V135h1.2l.1 8.2zm-5.1.7c2.6 0 3.9-2.3 3.9-4 0-2.1-1.7-4-3.9-4s-3.9 1.9-3.9 4c.1 2.1 1.7 4 3.9 4zm7.1-12.4h1.2v2.3h-1.2v-2.3zm0 3.5h1.2v9.8h-1.2V135zm4.4 1.1h-2.1V135h2.1v-3.4h1.2v3.4h2.3v1.1H681v8.7h-1.2v-8.7zm14.5 8.7H693v-1.7c-1.1 1.6-2.8 1.9-3.8 1.9-3.1 0-5.3-2.3-5.3-5.1 0-2.6 2.1-5.1 5.3-5.1 1.1 0 2.8.3 3.8 2V135h1.2v9.8zm-5.1-.9c2.1 0 3.9-1.7 3.9-4 0-2.1-1.7-4-3.9-4s-4 1.6-4 4c0 2.2 1.6 4 4 4zm7-12.4h1.2v13.2h-1.2v-13.2zm8.1 0h1.3v12.1h5.5v1.2h-6.8v-13.3zm17.6 13.3h-1.2v-1.7c-1.1 1.6-2.8 1.9-3.8 1.9-3.1 0-5.3-2.3-5.3-5.1 0-2.6 2.1-5.1 5.3-5.1 1.1 0 2.8.3 3.8 2V135h1.2v9.8zm-5.1-.9c2.1 0 3.9-1.7 3.9-4 0-2.1-1.7-4-3.9-4s-4 1.6-4 4c0 2.2 1.6 4 4 4zm7.4-12.4h1.2v5.2c1.1-1.6 2.8-2 3.8-2 3.2 0 5.3 2.5 5.3 5.1 0 2.8-2.2 5.1-5.3 5.1-1 0-2.7-.4-3.8-1.9v1.7h-1.2v-13.2zm5.1 4.4c-2.3 0-3.9 1.9-3.9 4 0 2.3 1.8 4 3.9 4 2.4 0 4-1.8 4-4 0-2.5-1.9-4-4-4zm7.2 6c0 1.9 1.3 2 1.8 2 1.2 0 1.8-.7 1.8-1.8 0-1.3-1.2-1.6-2-1.9-1-.3-2.6-.9-2.6-2.7 0-1.4 1-2.7 2.8-2.7 1.5 0 2.7 1.1 2.7 2.7h-1.2c-.1-1.2-.9-1.5-1.5-1.5-1 0-1.5.8-1.5 1.5 0 1 1 1.4 1.8 1.6 1.2.4 2.8 1 2.8 3 0 1.7-1 3-3.1 3-1.4 0-3.1-.9-3-3.1l1.2-.1z"/><path class="st3" d="M647.8 267h9c4.9 0 7.2.5 9.3 2.8 1.3 1.3 1.7 3.1 1.7 4.8 0 2.2-1 4.5-3.4 5.9 4.7 1.6 4.8 5.5 4.8 6.8 0 2.3-.9 4.9-2.7 6.3-2.7 2.2-4.6 2.5-9.5 2.5h-9.2V267zm7.1 11h2.6c1 0 3.2 0 3.2-2.3 0-2.2-2-2.2-3.2-2.2h-2.6v4.5zm0 11.6h3.5c.9 0 3.7 0 3.7-2.8 0-2.5-2.5-2.5-3.7-2.5h-3.5v5.3zm16.5-22.6h6.5v29.1h-6.5V267zm29.9 29.1h-6.2v-2.3h-.1c-1.3 2.8-4 3-5.7 3-1.3 0-4.5-.3-6.4-2.8-1.7-2.2-2-3.7-2-6.7v-13.1h6.5v12.1c0 1.5 0 4.4 3.5 4.4 1.9 0 3.7-1 3.7-4.5v-12h6.5l.2 21.9zm24.2-6.8c-1.1 2.4-2.6 4.3-4.5 5.6-1.8 1.3-4 2-6.2 2-6.3 0-11.6-5.1-11.6-11.6 0-6.1 4.8-11.7 11.5-11.7s11.5 5.3 11.5 11.9c0 .9-.1 1.2-.2 1.7h-16.4c.4 2.6 2.6 4.1 5.1 4.1 2 0 3.1-.9 4-2h6.8zm-5.7-6.5c-.3-1.3-1.6-3.7-5-3.7s-4.7 2.4-5 3.7h10zm21.8-7.3c-.2-1-.4-2.8-2.7-2.8-1.3 0-2.6.9-2.6 2.3 0 1.7.8 2.1 6 4.5 5.4 2.4 6.8 5 6.8 8.3 0 4.2-2.4 8.9-10.2 8.9-8.4 0-10.5-5.5-10.5-9.2v-.9h7.4c0 3.4 2.1 4 3 4 1.8 0 2.8-1.5 2.8-2.8 0-1.9-1.2-2.4-5.7-4.3-2-.8-7.1-2.9-7.1-8.3s5.3-8.6 10.2-8.6c2.9 0 6 1.1 7.9 3.3 1.7 2.1 1.8 4.1 1.9 5.8l-7.2-.2zm9.5-8.5h6.5v15.2h.1l6.1-7.9h7.8l-8.2 9.6 8 12.2H764l-6.2-10.5h-.1v10.5h-6.5V267z"/><path class="st3" d="M792.5 274.3l-10.9 29.1h-6.9l3.5-8.4-8.1-20.7h7l4.4 12.7h.1l4.2-12.7h6.7z"/><g><path class="st2" d="M594.1 281.5v6.1c4.7 0 8.5 3.8 8.5 8.5h6.1c0-8.1-6.6-14.6-14.6-14.6z"/><path class="st2" d="M623.2 267.1c-1.3-6.8-7.2-11.9-14.4-11.9-7.3 0-13.4 5.4-14.5 12.4 2.1 0 4.1.3 6 .8.7-4 4.2-7 8.4-7 4.7 0 8.6 3.8 8.6 8.6v3.1h3c4.7 0 8.6 3.8 8.6 8.6s-3.8 8.6-8.6 8.6h-2.7c-.7-2.6-1.8-5.1-3.2-7.3-3.3-5-8.3-8.7-14.2-10.2-2-.5-4-.8-6.1-.8v6.1c10.1 0 18.3 8.2 18.3 18.3h8c8.1 0 14.7-6.6 14.7-14.6-.1-7.5-5.2-13.4-11.9-14.7z"/></g><g><path class="st3" d="M647.7 308.1h3.9c1.6 0 3.2.4 4.3 1.1 2.3 1.5 3 4 3 5.6 0 1.2-.5 3.9-3 5.5-1.1.7-2.7 1.1-4.3 1.1h-3.9v-13.3zm1.3 12h1.9c1.2 0 3 0 4.5-1.1.8-.7 2.1-2.1 2.1-4.4 0-1.8-.9-3.4-2.2-4.4-1.2-.8-2.4-1-4.4-1H649v10.9zm11.5-12h1.2v2.3h-1.2v-2.3zm0 3.4h1.2v9.8h-1.2v-9.8zm12.9 8.3c0 1.1 0 2.4-.9 3.6-1.2 1.7-3.5 1.8-3.9 1.8-1.4 0-4.1-.5-5-3.6h1.3c.3.8 1.3 2.5 3.7 2.5 1.7 0 3.5-1 3.5-3.6v-.9c-.7 1.4-2.3 2-3.8 2-2.6 0-5.1-2-5.1-5.1 0-3.1 2.5-5.2 5.1-5.2.9 0 2.7.3 3.8 2v-1.8h1.2l.1 8.3zm-5.1.6c2.6 0 3.9-2.3 3.9-4 0-2.1-1.7-4-3.9-4s-3.9 1.9-3.9 4c.1 2.2 1.7 4 3.9 4zm7.1-12.3h1.2v2.3h-1.2v-2.3zm0 3.4h1.2v9.8h-1.2v-9.8zm4.4 1.2h-2.1v-1.1h2.1v-3.5h1.2v3.5h2.3v1.1H681v8.7h-1.2v-8.7zm14.5 8.6H693v-1.7c-1.1 1.6-2.8 2-3.8 2-3.1 0-5.3-2.3-5.3-5.1 0-2.6 2.1-5.1 5.3-5.1 1.1 0 2.8.3 3.8 2v-1.7h1.2v9.6h.1zm-5.1-.9c2.1 0 3.9-1.7 3.9-4 0-2.1-1.7-4-3.9-4s-4 1.6-4 4c0 2.2 1.6 4 4 4zm7-12.3h1.2v13.2h-1.2v-13.2zm8.1 0h1.3v12h5.5v1.2h-6.8v-13.2zm17.6 13.2h-1.2v-1.7c-1.1 1.6-2.8 2-3.8 2-3.1 0-5.3-2.3-5.3-5.1 0-2.6 2.1-5.1 5.3-5.1 1.1 0 2.8.3 3.8 2v-1.7h1.2v9.6zm-5.1-.9c2.1 0 3.9-1.7 3.9-4 0-2.1-1.7-4-3.9-4s-4 1.6-4 4c0 2.2 1.6 4 4 4zm7.4-12.3h1.2v5.2c1.1-1.6 2.8-2 3.8-2 3.2 0 5.3 2.5 5.3 5.1 0 2.8-2.2 5.1-5.3 5.1-1 0-2.7-.4-3.8-2v1.7h-1.2v-13.1zm5.1 4.3c-2.3 0-3.9 1.9-3.9 4 0 2.3 1.8 4 3.9 4 2.4 0 4-1.8 4-4 0-2.4-1.9-4-4-4zm7.2 6c0 1.9 1.3 2 1.8 2 1.2 0 1.8-.7 1.8-1.8 0-1.3-1.2-1.6-2-2-1-.3-2.6-.9-2.6-2.7 0-1.4 1-2.7 2.8-2.7 1.5 0 2.7 1.1 2.7 2.7h-1.2c-.1-1.2-.9-1.5-1.5-1.5-1 0-1.5.8-1.5 1.5 0 1 1 1.4 1.8 1.6 1.2.4 2.8 1 2.8 3 0 1.7-1 3-3.1 3-1.4 0-3.1-.9-3-3.1h1.2z"/></g><g><path class="st3" d="M647.8 461.4h9c4.9 0 7.2.5 9.3 2.8 1.3 1.3 1.7 3.1 1.7 4.8 0 2.2-1 4.5-3.4 5.9 4.7 1.6 4.8 5.5 4.8 6.8 0 2.3-.9 4.9-2.7 6.3-2.7 2.2-4.6 2.5-9.5 2.5h-9.2v-29.1zm7.1 11h2.6c1 0 3.2 0 3.2-2.3 0-2.2-2-2.2-3.2-2.2h-2.6v4.5zm0 11.6h3.5c.9 0 3.7 0 3.7-2.8 0-2.5-2.5-2.5-3.7-2.5h-3.5v5.3zm16.5-22.6h6.5v29.1h-6.5v-29.1zm29.9 29.1h-6.2v-2.3h-.1c-1.3 2.8-4 3-5.7 3-1.3 0-4.5-.3-6.4-2.8-1.7-2.2-2-3.7-2-6.7v-13.1h6.5v12.1c0 1.5 0 4.4 3.5 4.4 1.9 0 3.7-1 3.7-4.5v-12h6.5l.2 21.9zm24.2-6.8c-1.1 2.4-2.6 4.3-4.5 5.6-1.8 1.3-4 2-6.2 2-6.3 0-11.6-5.1-11.6-11.6 0-6.1 4.8-11.7 11.5-11.7s11.5 5.3 11.5 11.9c0 .9-.1 1.2-.2 1.7h-16.4c.4 2.6 2.6 4.1 5.1 4.1 2 0 3.1-.9 4-2h6.8zm-5.7-6.5c-.3-1.3-1.6-3.7-5-3.7s-4.7 2.4-5 3.7h10zm21.8-7.3c-.2-1-.4-2.8-2.7-2.8-1.3 0-2.6.9-2.6 2.3 0 1.7.8 2.1 6 4.5 5.4 2.4 6.8 5 6.8 8.3 0 4.2-2.4 8.9-10.2 8.9-8.4 0-10.5-5.5-10.5-9.2v-.9h7.4c0 3.4 2.1 4 3 4 1.8 0 2.8-1.5 2.8-2.8 0-1.9-1.2-2.4-5.7-4.3-2-.8-7.1-2.9-7.1-8.3s5.3-8.6 10.2-8.6c2.9 0 6 1.1 7.9 3.3 1.7 2.1 1.8 4.1 1.9 5.8l-7.2-.2zm9.5-8.5h6.5v15.2h.1l6.1-7.9h7.8l-8.2 9.6 8 12.2H764l-6.2-10.5h-.1v10.5h-6.5v-29.1z"/><path class="st3" d="M792.5 468.7l-10.9 29.1h-6.9l3.5-8.4-8.1-20.7h7l4.4 12.7h.1l4.2-12.7h6.7z"/></g><g><path class="st0" d="M594.1 475.9v6.1c4.7 0 8.5 3.8 8.5 8.5h6.1c0-8.1-6.6-14.6-14.6-14.6z"/><path class="st0" d="M623.2 461.5c-1.3-6.8-7.2-12-14.4-12-7.3 0-13.4 5.4-14.5 12.4 2.1 0 4.1.3 6 .8.7-4 4.2-7 8.4-7 4.7 0 8.6 3.8 8.6 8.6v3.1h3c4.7 0 8.6 3.8 8.6 8.6s-3.8 8.6-8.6 8.6h-2.7c-.7-2.6-1.8-5.1-3.2-7.3-3.3-5-8.3-8.7-14.2-10.2-2-.5-4-.8-6.1-.8v6.1c10.1 0 18.3 8.2 18.3 18.3h8c8.1 0 14.7-6.6 14.7-14.6-.1-7.4-5.2-13.3-11.9-14.6z"/></g><g><path class="st3" d="M647.7 502.5h3.9c1.6 0 3.2.4 4.3 1.1 2.3 1.5 3 4 3 5.6 0 1.2-.5 3.9-3 5.5-1.1.7-2.7 1.1-4.3 1.1h-3.9v-13.3zm1.3 12h1.9c1.2 0 3 0 4.5-1.1.8-.7 2.1-2.1 2.1-4.4 0-1.8-.9-3.4-2.2-4.4-1.2-.8-2.4-1-4.4-1H649v10.9zm11.5-12h1.2v2.3h-1.2v-2.3zm0 3.4h1.2v9.8h-1.2v-9.8zm12.9 8.3c0 1.1 0 2.4-.9 3.6-1.2 1.7-3.5 1.8-3.9 1.8-1.4 0-4.1-.5-5-3.6h1.3c.3.8 1.3 2.5 3.7 2.5 1.7 0 3.5-1 3.5-3.7v-.8c-.7 1.4-2.3 2-3.8 2-2.6 0-5.1-2-5.1-5.1 0-3.1 2.5-5.2 5.1-5.2.9 0 2.7.3 3.8 2V506h1.2l.1 8.2zm-5.1.6c2.6 0 3.9-2.3 3.9-4 0-2.1-1.7-4-3.9-4s-3.9 1.9-3.9 4c.1 2.2 1.7 4 3.9 4zm7.1-12.3h1.2v2.3h-1.2v-2.3zm0 3.4h1.2v9.8h-1.2v-9.8zm4.4 1.2h-2.1V506h2.1v-3.5h1.2v3.5h2.3v1.1H681v8.7h-1.2v-8.7zm14.5 8.6H693V514c-1.1 1.6-2.8 2-3.8 2-3.1 0-5.3-2.3-5.3-5.2 0-2.6 2.1-5.1 5.3-5.1 1.1 0 2.8.3 3.8 2V506h1.2v9.7h.1zm-5.1-.9c2.1 0 3.9-1.7 3.9-4 0-2.1-1.7-4-3.9-4s-4 1.6-4 4c0 2.2 1.6 4 4 4zm7-12.3h1.2v13.2h-1.2v-13.2zm8.1 0h1.3v12h5.5v1.2h-6.8v-13.2zm17.6 13.2h-1.2V514c-1.1 1.6-2.8 2-3.8 2-3.1 0-5.3-2.3-5.3-5.2 0-2.6 2.1-5.1 5.3-5.1 1.1 0 2.8.3 3.8 2V506h1.2v9.7zm-5.1-.9c2.1 0 3.9-1.7 3.9-4 0-2.1-1.7-4-3.9-4s-4 1.6-4 4c0 2.2 1.6 4 4 4zm7.4-12.3h1.2v5.2c1.1-1.6 2.8-2 3.8-2 3.2 0 5.3 2.5 5.3 5.1 0 2.8-2.2 5.2-5.3 5.2-1 0-2.7-.4-3.8-2v1.7h-1.2v-13.2zm5.1 4.3c-2.3 0-3.9 1.9-3.9 4 0 2.3 1.8 4 3.9 4 2.4 0 4-1.8 4-4 0-2.4-1.9-4-4-4zm7.2 6c0 1.9 1.3 2 1.8 2 1.2 0 1.8-.7 1.8-1.8 0-1.3-1.2-1.6-2-2-1-.3-2.6-.9-2.6-2.7 0-1.4 1-2.7 2.8-2.7 1.5 0 2.7 1.1 2.7 2.7h-1.2c-.1-1.2-.9-1.5-1.5-1.5-1 0-1.5.8-1.5 1.5 0 1 1 1.4 1.8 1.6 1.2.4 2.8 1 2.8 3 0 1.7-1 3-3.1 3-1.4 0-3.1-.9-3-3.1h1.2z"/></g></svg>