<svg version="1.1" id="Layer_1" xmlns="http://www.w3.org/2000/svg" x="0" y="0" viewBox="0 0 40.95 40.99" xml:space="preserve"><style>.st0{fill:#4563cc}.st2{fill:#333}.st3{fill:#fff}</style><path class="st0" d="M957.01 391.38h-791.3V198.09h791.87z"/><path fill="#414141" d="M957.01 616.43h-791.3V389.07h791.87z"/><path class="st2" d="M328.82 90.45h8.97c4.92 0 7.2.47 9.33 2.83 1.3 1.34 1.73 3.11 1.73 4.8 0 2.24-1.02 4.53-3.38 5.86 4.68 1.65 4.8 5.55 4.8 6.77 0 2.32-.91 4.88-2.68 6.34-2.68 2.24-4.6 2.52-9.52 2.52h-9.25V90.45zm7.12 11.05h2.64c1.02 0 3.15 0 3.15-2.32 0-2.2-2.01-2.2-3.15-2.2h-2.64v4.52zm0 11.53h3.5c.94 0 3.7 0 3.7-2.79 0-2.52-2.52-2.52-3.7-2.52h-3.5v5.31zM352.43 90.45h6.53v29.12h-6.53V90.45zM382.33 119.57h-6.18v-2.32h-.08c-1.34 2.79-4.01 3.03-5.67 3.03-1.34 0-4.49-.31-6.41-2.75-1.73-2.16-1.97-3.74-1.97-6.73V97.73h6.53v12.08c0 1.5 0 4.37 3.5 4.37 1.89 0 3.74-.98 3.74-4.45v-12h6.53v21.84zM406.53 112.72c-1.06 2.44-2.6 4.33-4.45 5.59-1.81 1.3-3.97 1.97-6.22 1.97-6.26 0-11.57-5.08-11.57-11.57 0-6.1 4.8-11.73 11.45-11.73s11.53 5.27 11.53 11.92c0 .87-.08 1.22-.16 1.73h-16.37c.39 2.6 2.56 4.13 5.12 4.13 2.01 0 3.07-.91 3.97-2.05h6.7zm-5.78-6.49c-.28-1.3-1.57-3.74-4.96-3.74s-4.68 2.44-4.96 3.74h9.92zM422.58 98.95c-.16-.98-.39-2.83-2.68-2.83-1.3 0-2.56.91-2.56 2.28 0 1.73.79 2.09 6.02 4.45 5.43 2.44 6.81 4.96 6.81 8.34 0 4.25-2.44 8.93-10.15 8.93-8.42 0-10.51-5.51-10.51-9.25v-.94h7.4c0 3.38 2.09 3.97 3.03 3.97 1.77 0 2.83-1.46 2.83-2.79 0-1.93-1.22-2.4-5.71-4.29-2.05-.83-7.12-2.87-7.12-8.34s5.31-8.58 10.19-8.58c2.87 0 5.98 1.06 7.87 3.31 1.73 2.12 1.85 4.09 1.93 5.75h-7.35zM432.1 90.45h6.53v15.19h.08l6.06-7.91h7.75l-8.22 9.6 7.99 12.24h-7.4l-6.18-10.51h-.08v10.51h-6.53V90.45z"/><path class="st2" d="M473.54 97.73l-10.94 29.12h-6.93l3.46-8.38-8.11-20.74H458l4.37 12.67h.08l4.17-12.67h6.92z"/><path class="st0" d="M0 26.39v6.06c4.7 0 8.53 3.83 8.53 8.53h6.06c0-8.05-6.55-14.59-14.59-14.59z"/><path class="st0" d="M29.09 11.95C27.82 5.16 21.84 0 14.69 0 7.38 0 1.31 5.37.21 12.37c2.1.02 4.12.28 6.05.76.72-4 4.22-7.04 8.42-7.04 4.72 0 8.56 3.84 8.56 8.56v3.12h3.04c4.72 0 8.56 3.84 8.56 8.56s-3.84 8.56-8.56 8.56H23.6c-.68-2.63-1.79-5.09-3.25-7.3-3.28-4.98-8.33-8.69-14.24-10.22-1.95-.51-3.99-.78-6.09-.78h-.03V22.65c10.1 0 18.32 8.22 18.32 18.32h.01v.01l7.97.01c8.08 0 14.65-6.57 14.65-14.65.01-7.12-5.1-13.08-11.85-14.39z"/><path class="st3" d="M328.82 266.99h8.97c4.92 0 7.2.47 9.33 2.83 1.3 1.34 1.73 3.11 1.73 4.8 0 2.24-1.02 4.53-3.38 5.86 4.68 1.65 4.8 5.55 4.8 6.77 0 2.32-.91 4.88-2.68 6.34-2.68 2.24-4.6 2.52-9.52 2.52h-9.25v-29.12zm7.12 11.06h2.64c1.02 0 3.15 0 3.15-2.32 0-2.2-2.01-2.2-3.15-2.2h-2.64v4.52zm0 11.53h3.5c.94 0 3.7 0 3.7-2.79 0-2.52-2.52-2.52-3.7-2.52h-3.5v5.31zM352.43 266.99h6.53v29.12h-6.53v-29.12zM382.33 296.11h-6.18v-2.32h-.08c-1.34 2.79-4.01 3.03-5.67 3.03-1.34 0-4.49-.31-6.41-2.75-1.73-2.16-1.97-3.74-1.97-6.73v-13.06h6.53v12.08c0 1.5 0 4.37 3.5 4.37 1.89 0 3.74-.98 3.74-4.45v-12h6.53v21.83zM406.53 289.26c-1.06 2.44-2.6 4.33-4.45 5.59-1.81 1.3-3.97 1.97-6.22 1.97-6.26 0-11.57-5.08-11.57-11.57 0-6.1 4.8-11.73 11.45-11.73s11.53 5.27 11.53 11.92c0 .87-.08 1.22-.16 1.73h-16.37c.39 2.6 2.56 4.13 5.12 4.13 2.01 0 3.07-.91 3.97-2.05h6.7zm-5.78-6.49c-.28-1.3-1.57-3.74-4.96-3.74s-4.68 2.44-4.96 3.74h9.92zM422.58 275.49c-.16-.98-.39-2.83-2.68-2.83-1.3 0-2.56.91-2.56 2.28 0 1.73.79 2.09 6.02 4.45 5.43 2.44 6.81 4.96 6.81 8.34 0 4.25-2.44 8.93-10.15 8.93-8.42 0-10.51-5.51-10.51-9.25v-.94h7.4c0 3.38 2.09 3.97 3.03 3.97 1.77 0 2.83-1.46 2.83-2.79 0-1.93-1.22-2.4-5.71-4.29-2.05-.83-7.12-2.87-7.12-8.34s5.31-8.58 10.19-8.58c2.87 0 5.98 1.06 7.87 3.31 1.73 2.12 1.85 4.09 1.93 5.75h-7.35zM432.1 266.99h6.53v15.19h.08l6.06-7.91h7.75l-8.22 9.6 7.99 12.24h-7.4l-6.18-10.51h-.08v10.51h-6.53v-29.12z"/><path class="st3" d="M473.54 274.27l-10.94 29.12h-6.93l3.46-8.38-8.11-20.74H458l4.37 12.67h.08l4.17-12.67h6.92z"/><g><path class="st2" d="M275.09 281.49v6.06c4.7 0 8.53 3.83 8.53 8.53h6.06c0-8.05-6.54-14.59-14.59-14.59z"/><path class="st2" d="M304.18 267.06c-1.27-6.8-7.25-11.95-14.4-11.95-7.3 0-13.37 5.37-14.47 12.37 2.1.02 4.12.28 6.05.76.72-4 4.22-7.04 8.42-7.04 4.72 0 8.56 3.84 8.56 8.56v3.12h3.04c4.72 0 8.56 3.84 8.56 8.56 0 4.72-3.84 8.56-8.56 8.56h-2.68c-.68-2.63-1.79-5.09-3.25-7.3-3.28-4.98-8.33-8.69-14.24-10.22-1.95-.51-3.99-.78-6.09-.78h-.03V277.76c10.1 0 18.32 8.22 18.32 18.32h.01v.01l7.97.01c8.08 0 14.65-6.57 14.65-14.65 0-7.13-5.11-13.09-11.86-14.39z"/></g><g><path class="st3" d="M328.82 461.4h8.97c4.92 0 7.2.47 9.33 2.83 1.3 1.34 1.73 3.11 1.73 4.8 0 2.24-1.02 4.53-3.38 5.86 4.68 1.65 4.8 5.55 4.8 6.77 0 2.32-.91 4.88-2.68 6.34-2.68 2.24-4.6 2.52-9.52 2.52h-9.25V461.4zm7.12 11.05h2.64c1.02 0 3.15 0 3.15-2.32 0-2.2-2.01-2.2-3.15-2.2h-2.64v4.52zm0 11.53h3.5c.94 0 3.7 0 3.7-2.79 0-2.52-2.52-2.52-3.7-2.52h-3.5v5.31zM352.43 461.4h6.53v29.12h-6.53V461.4zM382.33 490.52h-6.18v-2.32h-.08c-1.34 2.79-4.01 3.03-5.67 3.03-1.34 0-4.49-.31-6.41-2.75-1.73-2.16-1.97-3.74-1.97-6.73v-13.06h6.53v12.08c0 1.5 0 4.37 3.5 4.37 1.89 0 3.74-.98 3.74-4.45v-12h6.53v21.83zM406.53 483.67c-1.06 2.44-2.6 4.33-4.45 5.59-1.81 1.3-3.97 1.97-6.22 1.97-6.26 0-11.57-5.08-11.57-11.57 0-6.1 4.8-11.73 11.45-11.73s11.53 5.27 11.53 11.92c0 .87-.08 1.22-.16 1.73h-16.37c.39 2.6 2.56 4.13 5.12 4.13 2.01 0 3.07-.91 3.97-2.05h6.7zm-5.78-6.49c-.28-1.3-1.57-3.74-4.96-3.74s-4.68 2.44-4.96 3.74h9.92zM422.58 469.9c-.16-.98-.39-2.83-2.68-2.83-1.3 0-2.56.91-2.56 2.28 0 1.73.79 2.09 6.02 4.45 5.43 2.44 6.81 4.96 6.81 8.34 0 4.25-2.44 8.93-10.15 8.93-8.42 0-10.51-5.51-10.51-9.25v-.94h7.4c0 3.38 2.09 3.97 3.03 3.97 1.77 0 2.83-1.46 2.83-2.79 0-1.93-1.22-2.4-5.71-4.29-2.05-.83-7.12-2.87-7.12-8.34s5.31-8.58 10.19-8.58c2.87 0 5.98 1.06 7.87 3.31 1.73 2.12 1.85 4.09 1.93 5.75h-7.35zM432.1 461.4h6.53v15.19h.08l6.06-7.91h7.75l-8.22 9.6 7.99 12.24h-7.4l-6.18-10.51h-.08v10.51h-6.53V461.4z"/><path class="st3" d="M473.54 468.68L462.6 497.8h-6.93l3.46-8.38-8.11-20.74H458l4.37 12.67h.08l4.17-12.67h6.92z"/></g><g><path class="st0" d="M275.09 475.89v6.06c4.7 0 8.53 3.83 8.53 8.53h6.06c0-8.04-6.54-14.59-14.59-14.59z"/><path class="st0" d="M304.18 461.46c-1.27-6.8-7.25-11.95-14.4-11.95-7.3 0-13.37 5.37-14.47 12.37 2.1.02 4.12.28 6.05.76.72-4 4.22-7.04 8.42-7.04 4.72 0 8.56 3.84 8.56 8.56v3.12h3.04c4.72 0 8.56 3.84 8.56 8.56 0 4.72-3.84 8.56-8.56 8.56h-2.68c-.68-2.63-1.79-5.09-3.25-7.3-3.28-4.98-8.33-8.69-14.24-10.22-1.95-.51-3.99-.78-6.09-.78h-.03V472.16c10.1 0 18.32 8.22 18.32 18.32h.01v.01l7.97.01c8.08 0 14.65-6.57 14.65-14.65 0-7.13-5.11-13.08-11.86-14.39z"/></g><g><path class="st2" d="M647.82 90.45h8.97c4.92 0 7.2.47 9.33 2.83 1.3 1.34 1.73 3.11 1.73 4.8 0 2.24-1.02 4.53-3.38 5.86 4.68 1.65 4.8 5.55 4.8 6.77 0 2.32-.91 4.88-2.68 6.34-2.68 2.24-4.6 2.52-9.52 2.52h-9.25V90.45zm7.12 11.05h2.64c1.02 0 3.15 0 3.15-2.32 0-2.2-2.01-2.2-3.15-2.2h-2.64v4.52zm0 11.53h3.5c.94 0 3.7 0 3.7-2.79 0-2.52-2.52-2.52-3.7-2.52h-3.5v5.31zM671.43 90.45h6.53v29.12h-6.53V90.45zM701.33 119.57h-6.18v-2.32h-.08c-1.34 2.79-4.01 3.03-5.67 3.03-1.34 0-4.49-.31-6.41-2.75-1.73-2.16-1.97-3.74-1.97-6.73V97.73h6.53v12.08c0 1.5 0 4.37 3.5 4.37 1.89 0 3.74-.98 3.74-4.45v-12h6.53v21.84zM725.53 112.72c-1.06 2.44-2.6 4.33-4.45 5.59-1.81 1.3-3.97 1.97-6.22 1.97-6.26 0-11.57-5.08-11.57-11.57 0-6.1 4.8-11.73 11.45-11.73 6.65 0 11.53 5.27 11.53 11.92 0 .87-.08 1.22-.16 1.73h-16.37c.39 2.6 2.56 4.13 5.12 4.13 2.01 0 3.07-.91 3.97-2.05h6.7zm-5.78-6.49c-.28-1.3-1.57-3.74-4.96-3.74-3.38 0-4.68 2.44-4.96 3.74h9.92zM741.58 98.95c-.16-.98-.39-2.83-2.68-2.83-1.3 0-2.56.91-2.56 2.28 0 1.73.79 2.09 6.02 4.45 5.43 2.44 6.81 4.96 6.81 8.34 0 4.25-2.44 8.93-10.15 8.93-8.42 0-10.51-5.51-10.51-9.25v-.94h7.4c0 3.38 2.09 3.97 3.03 3.97 1.77 0 2.83-1.46 2.83-2.79 0-1.93-1.22-2.4-5.71-4.29-2.05-.83-7.12-2.87-7.12-8.34s5.31-8.58 10.19-8.58c2.87 0 5.98 1.06 7.87 3.31 1.73 2.12 1.85 4.09 1.93 5.75h-7.35zM751.1 90.45h6.53v15.19h.08l6.06-7.91h7.75l-8.22 9.6 7.99 12.24h-7.4l-6.18-10.51h-.08v10.51h-6.53V90.45z"/><path class="st2" d="M792.54 97.73l-10.94 29.12h-6.93l3.46-8.38-8.11-20.74H777l4.37 12.67h.08l4.17-12.67h6.92z"/></g><g><path class="st0" d="M594.09 104.94V111c4.7 0 8.53 3.83 8.53 8.53h6.06c0-8.04-6.54-14.59-14.59-14.59z"/><path class="st0" d="M623.18 90.51c-1.27-6.8-7.25-11.95-14.4-11.95-7.3 0-13.37 5.37-14.47 12.37 2.1.02 4.12.28 6.05.76.72-4 4.22-7.04 8.42-7.04 4.72 0 8.56 3.84 8.56 8.56v3.12h3.04c4.72 0 8.56 3.84 8.56 8.56 0 4.72-3.84 8.56-8.56 8.56h-2.68c-.68-2.63-1.79-5.09-3.25-7.3-3.28-4.98-8.33-8.69-14.24-10.22-1.95-.51-3.99-.78-6.09-.78h-.03V101.21c10.1 0 18.32 8.22 18.32 18.32h.01v.01l7.97.01c8.08 0 14.65-6.57 14.65-14.65 0-7.13-5.11-13.08-11.86-14.39z"/></g><g><path class="st2" d="M647.71 131.54h3.87c1.63 0 3.24.39 4.31 1.09 2.33 1.45 3.01 3.97 3.01 5.57 0 1.23-.48 3.88-3.01 5.49-1.07.7-2.68 1.09-4.31 1.09h-3.87v-13.24zm1.33 12.05h1.92c1.2 0 3.02 0 4.55-1.07.81-.68 2.08-2.06 2.08-4.37 0-1.75-.88-3.38-2.25-4.39-1.18-.77-2.42-1.02-4.37-1.02h-1.92v10.85zM660.5 131.54h1.25v2.26h-1.25v-2.26zm0 3.46h1.25v9.79h-1.25V135zM673.41 143.25c0 1.06 0 2.38-.9 3.58-1.23 1.72-3.49 1.81-3.88 1.81-1.4 0-4.12-.54-5.01-3.6h1.33c.32.81 1.29 2.47 3.67 2.47 1.65 0 3.54-.95 3.54-3.65V143h-.04c-.73 1.4-2.34 2.02-3.78 2.02-2.58 0-5.12-2-5.12-5.08 0-3.11 2.54-5.19 5.12-5.19.89 0 2.65.27 3.78 2h.04V135h1.25v8.25zm-5.07.64c2.6 0 3.88-2.33 3.88-3.99 0-2.15-1.68-4.03-3.88-4.03-2.22 0-3.87 1.88-3.87 4.03.01 2.13 1.65 3.99 3.87 3.99zM675.41 131.54h1.25v2.26h-1.25v-2.26zm0 3.46h1.25v9.79h-1.25V135zM679.77 136.12h-2.06V135h2.06v-3.45h1.25V135h2.34v1.13h-2.34v8.66h-1.25v-8.67zM694.29 144.79h-1.25v-1.72H693c-1.07 1.61-2.79 1.95-3.81 1.95-3.08 0-5.26-2.34-5.26-5.15 0-2.61 2.06-5.12 5.26-5.12 1.06 0 2.77.34 3.81 1.97h.04V135h1.25v9.79zm-5.1-.9c2.11 0 3.92-1.7 3.92-3.99 0-2.15-1.66-4.03-3.92-4.03-2.15 0-4.01 1.56-4.01 4.04 0 2.19 1.61 3.98 4.01 3.98zM696.2 131.54h1.25v13.25h-1.25v-13.25zM704.32 131.54h1.32v12.05h5.48v1.2h-6.8v-13.25zM721.87 144.79h-1.25v-1.72h-.04c-1.07 1.61-2.79 1.95-3.81 1.95-3.08 0-5.26-2.34-5.26-5.15 0-2.61 2.06-5.12 5.26-5.12 1.06 0 2.77.34 3.81 1.97h.04V135h1.25v9.79zm-5.1-.9c2.11 0 3.92-1.7 3.92-3.99 0-2.15-1.66-4.03-3.92-4.03-2.15 0-4.01 1.56-4.01 4.04 0 2.19 1.61 3.98 4.01 3.98zM724.19 131.54h1.25v5.17h.04c1.11-1.59 2.76-1.97 3.81-1.97 3.2 0 5.26 2.51 5.26 5.12 0 2.81-2.18 5.15-5.26 5.15-1.02 0-2.72-.36-3.81-1.95h-.04v1.72h-1.25v-13.24zm5.1 4.33c-2.26 0-3.92 1.88-3.92 4.03 0 2.29 1.81 3.99 3.92 3.99 2.4 0 4.01-1.79 4.01-3.97 0-2.49-1.86-4.05-4.01-4.05zM736.5 141.89c.04 1.86 1.31 2 1.75 2 1.18 0 1.83-.7 1.83-1.75 0-1.34-1.22-1.65-1.95-1.95-1-.34-2.6-.88-2.6-2.72 0-1.38.98-2.72 2.79-2.72 1.47 0 2.69 1.13 2.67 2.67h-1.25c-.09-1.2-.91-1.54-1.47-1.54-1 0-1.49.81-1.49 1.47 0 1.04 1.04 1.4 1.75 1.63 1.15.38 2.79 1 2.79 3.02.02 1.68-1 3.02-3.08 3.02-1.36 0-3.06-.93-3.01-3.13h1.27z"/></g><g><path class="st3" d="M647.82 266.99h8.97c4.92 0 7.2.47 9.33 2.83 1.3 1.34 1.73 3.11 1.73 4.8 0 2.24-1.02 4.53-3.38 5.86 4.68 1.65 4.8 5.55 4.8 6.77 0 2.32-.91 4.88-2.68 6.34-2.68 2.24-4.6 2.52-9.52 2.52h-9.25v-29.12zm7.12 11.06h2.64c1.02 0 3.15 0 3.15-2.32 0-2.2-2.01-2.2-3.15-2.2h-2.64v4.52zm0 11.53h3.5c.94 0 3.7 0 3.7-2.79 0-2.52-2.52-2.52-3.7-2.52h-3.5v5.31zM671.43 266.99h6.53v29.12h-6.53v-29.12zM701.33 296.11h-6.18v-2.32h-.08c-1.34 2.79-4.01 3.03-5.67 3.03-1.34 0-4.49-.31-6.41-2.75-1.73-2.16-1.97-3.74-1.97-6.73v-13.06h6.53v12.08c0 1.5 0 4.37 3.5 4.37 1.89 0 3.74-.98 3.74-4.45v-12h6.53v21.83zM725.53 289.26c-1.06 2.44-2.6 4.33-4.45 5.59-1.81 1.3-3.97 1.97-6.22 1.97-6.26 0-11.57-5.08-11.57-11.57 0-6.1 4.8-11.73 11.45-11.73 6.65 0 11.53 5.27 11.53 11.92 0 .87-.08 1.22-.16 1.73h-16.37c.39 2.6 2.56 4.13 5.12 4.13 2.01 0 3.07-.91 3.97-2.05h6.7zm-5.78-6.49c-.28-1.3-1.57-3.74-4.96-3.74-3.38 0-4.68 2.44-4.96 3.74h9.92zM741.58 275.49c-.16-.98-.39-2.83-2.68-2.83-1.3 0-2.56.91-2.56 2.28 0 1.73.79 2.09 6.02 4.45 5.43 2.44 6.81 4.96 6.81 8.34 0 4.25-2.44 8.93-10.15 8.93-8.42 0-10.51-5.51-10.51-9.25v-.94h7.4c0 3.38 2.09 3.97 3.03 3.97 1.77 0 2.83-1.46 2.83-2.79 0-1.93-1.22-2.4-5.71-4.29-2.05-.83-7.12-2.87-7.12-8.34s5.31-8.58 10.19-8.58c2.87 0 5.98 1.06 7.87 3.31 1.73 2.12 1.85 4.09 1.93 5.75h-7.35zM751.1 266.99h6.53v15.19h.08l6.06-7.91h7.75l-8.22 9.6 7.99 12.24h-7.4l-6.18-10.51h-.08v10.51h-6.53v-29.12z"/><path class="st3" d="M792.54 274.27l-10.94 29.12h-6.93l3.46-8.38-8.11-20.74H777l4.37 12.67h.08l4.17-12.67h6.92z"/></g><g><path class="st2" d="M594.09 281.49v6.06c4.7 0 8.53 3.83 8.53 8.53h6.06c0-8.05-6.54-14.59-14.59-14.59z"/><path class="st2" d="M623.18 267.06c-1.27-6.8-7.25-11.95-14.4-11.95-7.3 0-13.37 5.37-14.47 12.37 2.1.02 4.12.28 6.05.76.72-4 4.22-7.04 8.42-7.04 4.72 0 8.56 3.84 8.56 8.56v3.12h3.04c4.72 0 8.56 3.84 8.56 8.56 0 4.72-3.84 8.56-8.56 8.56h-2.68c-.68-2.63-1.79-5.09-3.25-7.3-3.28-4.98-8.33-8.69-14.24-10.22-1.95-.51-3.99-.78-6.09-.78h-.03V277.76c10.1 0 18.32 8.22 18.32 18.32h.01v.01l7.97.01c8.08 0 14.65-6.57 14.65-14.65 0-7.13-5.11-13.09-11.86-14.39z"/></g><g><path class="st3" d="M647.71 308.09h3.87c1.63 0 3.24.39 4.31 1.09 2.33 1.45 3.01 3.97 3.01 5.57 0 1.24-.48 3.88-3.01 5.5-1.07.7-2.68 1.09-4.31 1.09h-3.87v-13.25zm1.33 12.04h1.92c1.2 0 3.02 0 4.55-1.07.81-.68 2.08-2.06 2.08-4.37 0-1.75-.88-3.38-2.25-4.38-1.18-.77-2.42-1.02-4.37-1.02h-1.92v10.84zM660.5 308.09h1.25v2.26h-1.25v-2.26zm0 3.45h1.25v9.79h-1.25v-9.79zM673.41 319.79c0 1.06 0 2.38-.9 3.58-1.23 1.72-3.49 1.81-3.88 1.81-1.4 0-4.12-.54-5.01-3.6h1.33c.32.81 1.29 2.47 3.67 2.47 1.65 0 3.54-.95 3.54-3.65v-.86h-.04c-.73 1.4-2.34 2.02-3.78 2.02-2.58 0-5.12-2-5.12-5.08 0-3.11 2.54-5.19 5.12-5.19.89 0 2.65.27 3.78 2h.04v-1.75h1.25v8.25zm-5.07.65c2.6 0 3.88-2.33 3.88-3.99 0-2.15-1.68-4.03-3.88-4.03-2.22 0-3.87 1.88-3.87 4.03.01 2.12 1.65 3.99 3.87 3.99zM675.41 308.09h1.25v2.26h-1.25v-2.26zm0 3.45h1.25v9.79h-1.25v-9.79zM679.77 312.67h-2.06v-1.13h2.06v-3.45h1.25v3.45h2.34v1.13h-2.34v8.66h-1.25v-8.66zM694.29 321.33h-1.25v-1.72H693c-1.07 1.61-2.79 1.95-3.81 1.95-3.08 0-5.26-2.34-5.26-5.15 0-2.61 2.06-5.12 5.26-5.12 1.06 0 2.77.34 3.81 1.97h.04v-1.72h1.25v9.79zm-5.1-.89c2.11 0 3.92-1.7 3.92-3.99 0-2.15-1.66-4.03-3.92-4.03-2.15 0-4.01 1.56-4.01 4.04 0 2.19 1.61 3.98 4.01 3.98zM696.2 308.09h1.25v13.25h-1.25v-13.25zM704.32 308.09h1.32v12.05h5.48v1.2h-6.8v-13.25zM721.87 321.33h-1.25v-1.72h-.04c-1.07 1.61-2.79 1.95-3.81 1.95-3.08 0-5.26-2.34-5.26-5.15 0-2.61 2.06-5.12 5.26-5.12 1.06 0 2.77.34 3.81 1.97h.04v-1.72h1.25v9.79zm-5.1-.89c2.11 0 3.92-1.7 3.92-3.99 0-2.15-1.66-4.03-3.92-4.03-2.15 0-4.01 1.56-4.01 4.04 0 2.19 1.61 3.98 4.01 3.98zM724.19 308.09h1.25v5.17h.04c1.11-1.59 2.76-1.97 3.81-1.97 3.2 0 5.26 2.51 5.26 5.12 0 2.81-2.18 5.15-5.26 5.15-1.02 0-2.72-.36-3.81-1.95h-.04v1.72h-1.25v-13.24zm5.1 4.33c-2.26 0-3.92 1.88-3.92 4.03 0 2.29 1.81 3.99 3.92 3.99 2.4 0 4.01-1.79 4.01-3.97 0-2.5-1.86-4.05-4.01-4.05zM736.5 318.43c.04 1.86 1.31 2 1.75 2 1.18 0 1.83-.7 1.83-1.75 0-1.34-1.22-1.65-1.95-1.95-1-.34-2.6-.88-2.6-2.72 0-1.38.98-2.72 2.79-2.72 1.47 0 2.69 1.13 2.67 2.67h-1.25c-.09-1.2-.91-1.54-1.47-1.54-1 0-1.49.81-1.49 1.47 0 1.04 1.04 1.4 1.75 1.63 1.15.38 2.79 1 2.79 3.03.02 1.68-1 3.02-3.08 3.02-1.36 0-3.06-.93-3.01-3.13h1.27z"/></g><g><path class="st3" d="M647.82 461.4h8.97c4.92 0 7.2.47 9.33 2.83 1.3 1.34 1.73 3.11 1.73 4.8 0 2.24-1.02 4.53-3.38 5.86 4.68 1.65 4.8 5.55 4.8 6.77 0 2.32-.91 4.88-2.68 6.34-2.68 2.24-4.6 2.52-9.52 2.52h-9.25V461.4zm7.12 11.05h2.64c1.02 0 3.15 0 3.15-2.32 0-2.2-2.01-2.2-3.15-2.2h-2.64v4.52zm0 11.53h3.5c.94 0 3.7 0 3.7-2.79 0-2.52-2.52-2.52-3.7-2.52h-3.5v5.31zM671.43 461.4h6.53v29.12h-6.53V461.4zM701.33 490.52h-6.18v-2.32h-.08c-1.34 2.79-4.01 3.03-5.67 3.03-1.34 0-4.49-.31-6.41-2.75-1.73-2.16-1.97-3.74-1.97-6.73v-13.06h6.53v12.08c0 1.5 0 4.37 3.5 4.37 1.89 0 3.74-.98 3.74-4.45v-12h6.53v21.83zM725.53 483.67c-1.06 2.44-2.6 4.33-4.45 5.59-1.81 1.3-3.97 1.97-6.22 1.97-6.26 0-11.57-5.08-11.57-11.57 0-6.1 4.8-11.73 11.45-11.73 6.65 0 11.53 5.27 11.53 11.92 0 .87-.08 1.22-.16 1.73h-16.37c.39 2.6 2.56 4.13 5.12 4.13 2.01 0 3.07-.91 3.97-2.05h6.7zm-5.78-6.49c-.28-1.3-1.57-3.74-4.96-3.74-3.38 0-4.68 2.44-4.96 3.74h9.92zM741.58 469.9c-.16-.98-.39-2.83-2.68-2.83-1.3 0-2.56.91-2.56 2.28 0 1.73.79 2.09 6.02 4.45 5.43 2.44 6.81 4.96 6.81 8.34 0 4.25-2.44 8.93-10.15 8.93-8.42 0-10.51-5.51-10.51-9.25v-.94h7.4c0 3.38 2.09 3.97 3.03 3.97 1.77 0 2.83-1.46 2.83-2.79 0-1.93-1.22-2.4-5.71-4.29-2.05-.83-7.12-2.87-7.12-8.34s5.31-8.58 10.19-8.58c2.87 0 5.98 1.06 7.87 3.31 1.73 2.12 1.85 4.09 1.93 5.75h-7.35zM751.1 461.4h6.53v15.19h.08l6.06-7.91h7.75l-8.22 9.6 7.99 12.24h-7.4l-6.18-10.51h-.08v10.51h-6.53V461.4z"/><path class="st3" d="M792.54 468.68L781.6 497.8h-6.93l3.46-8.38-8.11-20.74H777l4.37 12.67h.08l4.17-12.67h6.92z"/></g><g><path class="st0" d="M594.09 475.89v6.06c4.7 0 8.53 3.83 8.53 8.53h6.06c0-8.04-6.54-14.59-14.59-14.59z"/><path class="st0" d="M623.18 461.46c-1.27-6.8-7.25-11.95-14.4-11.95-7.3 0-13.37 5.37-14.47 12.37 2.1.02 4.12.28 6.05.76.72-4 4.22-7.04 8.42-7.04 4.72 0 8.56 3.84 8.56 8.56v3.12h3.04c4.72 0 8.56 3.84 8.56 8.56 0 4.72-3.84 8.56-8.56 8.56h-2.68c-.68-2.63-1.79-5.09-3.25-7.3-3.28-4.98-8.33-8.69-14.24-10.22-1.95-.51-3.99-.78-6.09-.78h-.03V472.16c10.1 0 18.32 8.22 18.32 18.32h.01v.01l7.97.01c8.08 0 14.65-6.57 14.65-14.65 0-7.13-5.11-13.08-11.86-14.39z"/></g><g><path class="st3" d="M647.71 502.49h3.87c1.63 0 3.24.39 4.31 1.09 2.33 1.45 3.01 3.97 3.01 5.57 0 1.23-.48 3.88-3.01 5.49-1.07.7-2.68 1.09-4.31 1.09h-3.87v-13.24zm1.33 12.05h1.92c1.2 0 3.02 0 4.55-1.07.81-.68 2.08-2.06 2.08-4.37 0-1.75-.88-3.38-2.25-4.39-1.18-.77-2.42-1.02-4.37-1.02h-1.92v10.85zM660.5 502.49h1.25v2.26h-1.25v-2.26zm0 3.45h1.25v9.79h-1.25v-9.79zM673.41 514.2c0 1.06 0 2.38-.9 3.58-1.23 1.72-3.49 1.81-3.88 1.81-1.4 0-4.12-.54-5.01-3.6h1.33c.32.81 1.29 2.47 3.67 2.47 1.65 0 3.54-.95 3.54-3.65v-.86h-.04c-.73 1.4-2.34 2.02-3.78 2.02-2.58 0-5.12-2-5.12-5.08 0-3.11 2.54-5.19 5.12-5.19.89 0 2.65.27 3.78 2h.04v-1.75h1.25v8.25zm-5.07.64c2.6 0 3.88-2.33 3.88-3.99 0-2.15-1.68-4.03-3.88-4.03-2.22 0-3.87 1.88-3.87 4.03.01 2.13 1.65 3.99 3.87 3.99zM675.41 502.49h1.25v2.26h-1.25v-2.26zm0 3.45h1.25v9.79h-1.25v-9.79zM679.77 507.07h-2.06v-1.13h2.06v-3.46h1.25v3.46h2.34v1.13h-2.34v8.66h-1.25v-8.66zM694.29 515.73h-1.25v-1.72H693c-1.07 1.61-2.79 1.95-3.81 1.95-3.08 0-5.26-2.34-5.26-5.16 0-2.61 2.06-5.12 5.26-5.12 1.06 0 2.77.34 3.81 1.97h.04v-1.72h1.25v9.8zm-5.1-.89c2.11 0 3.92-1.7 3.92-3.99 0-2.15-1.66-4.03-3.92-4.03-2.15 0-4.01 1.56-4.01 4.04 0 2.19 1.61 3.98 4.01 3.98zM696.2 502.49h1.25v13.25h-1.25v-13.25zM704.32 502.49h1.32v12.05h5.48v1.2h-6.8v-13.25zM721.87 515.73h-1.25v-1.72h-.04c-1.07 1.61-2.79 1.95-3.81 1.95-3.08 0-5.26-2.34-5.26-5.16 0-2.61 2.06-5.12 5.26-5.12 1.06 0 2.77.34 3.81 1.97h.04v-1.72h1.25v9.8zm-5.1-.89c2.11 0 3.92-1.7 3.92-3.99 0-2.15-1.66-4.03-3.92-4.03-2.15 0-4.01 1.56-4.01 4.04 0 2.19 1.61 3.98 4.01 3.98zM724.19 502.49h1.25v5.17h.04c1.11-1.59 2.76-1.97 3.81-1.97 3.2 0 5.26 2.51 5.26 5.12 0 2.81-2.18 5.16-5.26 5.16-1.02 0-2.72-.36-3.81-1.95h-.04v1.72h-1.25v-13.25zm5.1 4.33c-2.26 0-3.92 1.88-3.92 4.03 0 2.29 1.81 3.99 3.92 3.99 2.4 0 4.01-1.79 4.01-3.97 0-2.49-1.86-4.05-4.01-4.05zM736.5 512.83c.04 1.86 1.31 2 1.75 2 1.18 0 1.83-.7 1.83-1.75 0-1.34-1.22-1.65-1.95-1.95-1-.34-2.6-.88-2.6-2.72 0-1.38.98-2.72 2.79-2.72 1.47 0 2.69 1.13 2.67 2.67h-1.25c-.09-1.2-.91-1.54-1.47-1.54-1 0-1.49.81-1.49 1.47 0 1.04 1.04 1.4 1.75 1.63 1.15.38 2.79 1 2.79 3.02.02 1.68-1 3.03-3.08 3.03-1.36 0-3.06-.93-3.01-3.13h1.27z"/></g></svg>